<?xml version="1.0" encoding="UTF-8" standalone="no"?>
<!DOCTYPE svg PUBLIC "-//W3C//DTD SVG 1.1//EN" "http://www.w3.org/Graphics/SVG/1.1/DTD/svg11.dtd">
<svg xmlns="http://www.w3.org/2000/svg" version="1.1" xmlns:xlink="http://www.w3.org/1999/xlink" width="650px" height="3030.0px">
<style>text {font-family:PingFangSC-Regular, Microsoft YaHei, 'Hiragino Sans GB', Helvetica; ;font-size:14px;fill:#333;}</style>
	<text x="0" y="37">请佛没跃春冠劲赞屯斥余李入符十并时摘呀傲肃试权豪堤焦蜂齿摆稀轧悦殊圆形别命奔疯押难腊</text>
	<text x="0" y="78">颈服下何怪落辅偏匆庙绪超颠羡任标肌版多要贩创冲肝革屑刊绞腥视倍见挡予黄贯往塌章陈泪斗</text>
	<text x="0" y="115">歉闸系件进爪溜段魔趴灭锐帐怎址庸险忽汉给雀府婶每读隔塞引纱动鸟里扔云滤蔬伯描皇童顾辰</text>
	<text x="0" y="161">巧侧科惩恒仓哗这朱刷淋茫借饮些问絮柱妖乔棍加槐宪平爹傍毯惨艘慰找谋扬狗挂会办责狱肾杠</text>
	<text x="0" y="204">兔教盼繁战劳沈租养轿馅帜坡官抓垮嚼负削缓统粗饭舞造挺喜奏怀池假狠碑冒荣限司率锻宝丙浪</text>
	<text x="0" y="235">状倡秧城筹橘猫鸡渡催再渗紫盈毫三欣孔垫胞蝴业哈早测布螺扛健铸迎废序脊断彻棚站吊眯破气</text>
	<text x="0" y="279">榆必伤畜投针红渐喉晶瘦渔写足集塔朗兵般湾吹约忆沉舍咳尘湿爱虾浩六咏雅核叙蚁座旬堆音绵</text>
	<text x="0" y="322">离阔敌也挪警胡闭居今帝恰建在卜渠范懂冤肩大违夸半炒滴亦考猪撕赴批蓄向晃棵艇步胜伞盆臣</text>
	<text x="0" y="364">土疲涌猛姑寨善番桑骗乏门病笔少竹绿叨昆宗格役盒烧垦滑除醒悼碧硬铃技敬浓御骨壮推搞量垄</text>
	<text x="0" y="395">争蛾箭厅绍初匠丝奥弓淘挖谣痒继面追陡赤迫库旷泼急票胸甜扇回决娘贸躬骡伏叉诱艰污抵作叹</text>
	<text x="0" y="445">贤漏缝柜侍忧丛北组张奇丈勇种儿嚷双疑挎麦枯捷菜整河使询慢杰扭轨成辣眨旋浑怨痕令各词活</text>
	<text x="0" y="491">速扮纯菠江七艺恢搁挠寄当尸至蚀供篮汤姻炎框发搭吵蜻顺列犹耍恨伸部寸特厦浆塘携事驰丢茅</text>
	<text x="0" y="526">沿僵载吐慈脖遭剧隶堵残宿拾则主态脏桨均万殃宜挣烦歪脸注裙亚临糠盟猜展欢君辉蔑越兰佳放</text>
	<text x="0" y="561">钱练用侨踢啄督仆呼躺将逐叛闪嫂捞哥射点尽同镇棉惕须纽康故宙碰刀锅浅港倘努抚参候徐狂孕</text>
	<text x="0" y="602">舒潜覆航比涉束区捐欺郑漠累扒堡霜逝菊净民纳此贱避首映昂桃戴华联不绩刮薪隙叮斜苦纸踏茂</text>
	<text x="0" y="651">判机括岗亭鼠狮聋桥色东签季后谎暑耻呜灾沸嗽房促效二镰黎微夏神熄福宅诗极饥指朝结心地牲</text>
	<text x="0" y="697">迈峡突厂伟幅坏厌婆掏笛皂债窑帽羊蒸准导且于遥墙长拍致尊燥拘雁样泊沃允柳钉相爬师席燃流</text>
	<text x="0" y="730">旦蔽栽胃昌嘴强坚属其赛闹钓拳煤惧乃缩犬姿乱工岩响龄翁仪昼答睡泻卖香聚德燕陶蛋裤恳讨逼</text>
	<text x="0" y="767">绣线撞驴胶醋热鱼著狐凯酿况暗间袄灶议藏浴管袜乓拜败饿鞭认抢宏粥董四撇恩亡秀耳苗材输翅</text>
	<text x="0" y="807">油肯才草额盏酒晚危价息制轮瞒如守蹄火完酸了摄调割运谈条援翠庆帆思免阴斤腹嘱算台甘贪诊</text>
	<text x="0" y="840">扶揭饺摸帅式礼谨拢症掠软贿失践疤弟堪疏姥腿但唇蠢厚忘昨受年烟采涨略铜辫翻掉暂选译摔丑</text>
	<text x="0" y="889">滋党毅概脱环记述纠穗览米因划励晕喂齐所洋汗信应识剥钩只枕付炭隐颤水仇刺讽趣躲娃惑牙启</text>
	<text x="0" y="920">颜倚察赵嫁一玩慨宵瓶订蝇异迟鉴刑掩蹦裹巩知坐扯喷辽全室秩眉陵典抬和壳钞灵岸豆减骤淹律</text>
	<text x="0" y="953">销糊声稻反通九防腰颂衡妹膜咸文改高蓬备压录皆墓呢稍伶清爷曲理它敲随锋徒自若慌招费仅山</text>
	<text x="0" y="986">寇纹宫鞠甲乐嫌梳锈托笨镜狭或暖壁摩础棒紧端客愧炸代欠禽凳担快秘祝膀石帮吗袭总搏雹辱烘</text>
	<text x="0" y="1020">愉奴转满衰力堂蛮休肠仰预派俊酬困犁霞妙勺昏跌奖缠勾谁莲萄捧尖毕助妻降嘉籍黑呆罢西盖层</text>
	<text x="0" y="1060">近岁梅资冈渣俭编固券娱汁孙泥像偶已躁查又忌鄙绸吨帖把稳血男路市阿售浮肺培劣牢辜析魂内</text>
	<text x="0" y="1104">卸佣果剃巾示毁敢拨夜懒京脚慎分裁攀明冰宽氏卫迹刻济摇凤苍枝包释柿吃姓训染厨龟裕涝轻富</text>
	<text x="0" y="1142">衣屠肿纲陆依葱扁矮缴术罪悟够芝吩照索踪趋俯短暮银舌似军陪肉盗跪柔欲质痰班遮摊滥狼侵丽</text>
	<text x="0" y="1179">坑克虫膛眠纵尼既却众以牛怜末己最珠节抽被弊忠络话跟洒智洲由晌滨猾诵威毛合直恐恼杯数吉</text>
	<text x="0" y="1221">织可原探提液确裳册错尾税贫先号误仍狡跳浇涂抗我吓击虽绒县筐肥孤姨劝程而炮遇兼道空胁报</text>
	<text x="0" y="1256">劫沙棋纷曾农碗谊泽捏根雷便王漂起透品握变哀未屈深睛实专谢诞征她宾容含茧乡叼捡挨挤百凉</text>
	<text x="0" y="1302">倾劈扩咐僻页鲜伙缺侮闯群牺丹距晒界碎雪杆队辞宣笼炉散政俩剂丁窃续胳让勤攻霸绢桐治巴小</text>
	<text x="0" y="1341">美骂挥麻凝烫椅念坦剩温荷芳保殿际例匙物益基鞋身法煌某洪厘睬禁陕卵滚遣英悄衬就课驱梯扫</text>
	<text x="0" y="1389">赖抖贞横械坛差菌级貌亿抱夹戚方障烈顿目猴亮盘挽箱语颗证赏体货玻播钳雾僚溉操绳怒纺蕉猎</text>
	<text x="0" y="1426">龙擦肤竭器岛说细怖奉兆怠邻锣到很虑揪撑详唱传拴日庄铅尿盯邪什踩崇遵承性畏场第唉圾副得</text>
	<text x="0" y="1459">窄花删修戒湖妇蜜霉窜逢孟葬倦蜡延经荒档协饰谷迁傻走嗓惜料琴袖萝情顶瓜项救笑住行跨边墨</text>
	<text x="0" y="1501">买设妄羞榜誓柏唯学兴牵历途鸦太待拉妈崖芽戏皱兄仔武偿哑乒检享恋坝膊木荡循充餐否员阀附</text>
	<text x="0" y="1543">裂撤煮你糖许脾矛株刃评义逮妨阁巡局悉拖馆个宁灰家演常企馒阵赶斩耽验悬勒光感扰矿缎封打</text>
	<text x="0" y="1578">敏赠赌他润低委告新凡本锄望碌源伪床做薯韵功社妥膝晋驾街来虚匪杏插篇海渴博罚衔桌支着控</text>
	<text x="0" y="1610">静祥蚕激铺连旗解绝医码获么辈尺非真旧景贵楼鹰拣垒筒登拦弃送底畅子希泡闻舱洽彩套尝芹贷</text>
	<text x="0" y="1647">监粱姐卧逗泳讯精星拔振前留图消炊砖犯轰期持审手雕敞雄类幕村榨顽驳郊右幸缸蚂糕口严意更</text>
	<text x="0" y="1684">腐境饼吸葡搬院抛漫炕冬终芬煎顷游酱沫捆牧岂侦栋天史田露诉鹊爸扎酷乌栗庭肚牌筛月献旺疼</text>
	<text x="0" y="1717">接井辩夕糟患校处友世咱授汽左叫架纪碍显梁川傅葛位脆禾饶冶老胖斧沟另寒斯毙白矩母腾楚洁</text>
	<text x="0" y="1755">飘永亏关宴熊坊密置荐有团窗补祖句偷桂取值垃臭夫郎鸽柴表八樱简久森象出咽股午死味网苏商</text>
	<text x="0" y="1798">央辛挑蜘耗沾悲阅波茶伐乎远搅阻津佩钥峰歼归肢葵估构规蓝帘国刚占良据执寺衫对震泰誉份竖</text>
	<text x="0" y="1834">单侄呈筑开惹千哪悔巨膨宇盲愚隆蛛愈朵瓣鸣袋狸玉吼几掘厕折咬独弯哲趁复即仗研圈较奶榴林</text>
	<text x="0" y="1875">书钻朽烂求俱盾仿阶论止魄弦泛马叠胆疆乖辟乙乘乳片捉哭私倒浸泄芦雨剪骑赔骄筝溪绕领南杨</text>
	<text x="0" y="1914">朋优您币普瞧灌锁损喘悠谅忍晴钟婚娇芒驶亲秤槽届疗称竞弹逆凑凭莫竟趟元邮寿块钢弄吧化吴</text>
	<text x="0" y="1952">鼓觉贼那树青愿人穷勉营为拼圣屋款梢护袍粉安枣食恶返欧铁珍灯岔野州唤疫搜剖抹计粘揉冷去</text>
	<text x="0" y="2002">笋立棕好谱务慧喊胀增捕烤廊垂产药啊窝丰秆志鲁卡粒披耀斑达松孝上瓦谦薄蚊箩盛丸听蹈能疾</text>
	<text x="0" y="2042">移势璃邀磁掌收旱辆虎苹俘茄秒维愁尚中砌等甩眼植贝锦萍宰乞替船枪忙贺省究锹俗奋域掀姜虏</text>
	<text x="0" y="2075">肆车陷讲是五毒融购公梨金浊啦愤恭幼冻从晨舟稠岭族滔穿屡柄椒园稿申鬼爽铲崭两艳及具涛叶</text>
	<text x="0" y="2122">蒙诚坟利瞎链洗囊唐退橡杜膏绑干适诸模秋脑正言影古秃幻喝脉混惯辨孩的赢拆卷塑无旅者哨夺</text>
	<text x="0" y="2158">蹲案看杀广哄吞伴疮背廉访扣赚现径们厉惭士积想熔默驼饲杂易仁壶痛弱馋拿氧拐遍抄遗爆嫩拌</text>
	<text x="0" y="2191">歇题举耐惠熟旁与剑都素字递锯泉腔害始逃跑潮店舅零介洞匹虹萌祸电板桶罩盐鼻阳然职捎闲茎</text>
	<text x="0" y="2225">名型交穴喇排鹅蜓灿仙奸暴罐需漆换睁谜储宋伍粪角稼带晓还慕球习栏叔瑞周贡迷刘撒召闷搂烛</text>
	<text x="0" y="2264">甚驻惊汇焰户舰互罗滩定拒财存之风屿重梦浙羽填共育次勿惰寻臂旨锡度歌配饱丧画埋外鸭骆磨</text>
	<text x="0" y="2298">靠朴截竿脂汪匀锤聪串策砍添蝶飞父凶择迅亩翼拥耕巷该筋施缘键丘触过殖澡兽女蛇蛙粮壤炼怕</text>
	<text x="0" y="2343">彼头切装蒜摧按绘鹿升停扑贴生纤观尤皮醉围淡</text>
</svg>